<?xml version="1.0" encoding="UTF-8"?>
<svg xmlns="http://www.w3.org/2000/svg"
 viewBox="0 0 2342 875"
 preserveAspectRatio="xMidYMid meet"
 role="img" aria-label="freymi">

<g transform="translate(0.000000,875.000000) scale(0.100000,-0.100000)"
fill="#000000" stroke="none">
<path d="M3524 7845 c-152 -33 -277 -146 -325 -293 -20 -61 -23 -97 -30 -397
-7 -356 -13 -399 -67 -499 -40 -76 -155 -185 -235 -224 -88 -44 -167 -52 -515
-52 -318 0 -376 -9 -470 -70 -69 -44 -122 -109 -154 -188 -22 -55 -23 -69 -26
-449 -2 -243 1 -413 7 -448 22 -120 104 -229 216 -288 l60 -32 380 -5 c443 -6
512 -2 589 33 69 32 144 101 179 165 49 91 57 151 57 463 0 159 5 311 11 345
6 32 27 92 46 133 44 93 158 210 250 259 125 66 103 64 1108 71 l910 6 62 29
c79 36 153 113 196 203 l32 68 0 435 0 436 -38 76 c-46 94 -129 175 -214 210
l-58 23 -955 2 c-769 1 -967 -1 -1016 -12z"/>
<path d="M20240 6876 c-107 -30 -201 -110 -246 -209 -24 -53 -28 -74 -27 -147
1 -98 17 -151 67 -219 142 -193 481 -211 650 -36 53 56 84 118 96 192 31 188
-87 369 -272 419 -64 17 -207 17 -268 0z"/>
<path d="M8420 6819 c-153 -11 -292 -47 -410 -106 -76 -38 -111 -63 -176 -128
-68 -68 -89 -97 -127 -176 -59 -124 -78 -206 -86 -364 l-6 -130 -122 -3 -123
-3 0 -284 0 -284 123 -3 122 -3 3 -837 2 -838 345 0 345 0 0 840 0 840 185 0
185 0 0 285 0 285 -180 0 c-210 0 -200 -6 -181 104 25 150 92 205 256 214 l95
5 0 292 0 292 -52 7 c-29 3 -60 5 -68 4 -8 0 -67 -5 -130 -9z"/>
<path d="M11569 5939 c-272 -29 -490 -129 -669 -309 -143 -143 -227 -291 -279
-493 -47 -179 -52 -454 -12 -642 97 -463 430 -776 905 -852 176 -27 439 -8
596 44 316 105 563 352 661 658 10 33 19 61 19 63 0 1 -166 2 -368 2 l-369 0
-32 -49 c-79 -123 -218 -180 -387 -159 -193 23 -321 161 -358 386 l-5 32 778
0 778 0 7 38 c3 20 6 96 6 168 0 335 -102 604 -309 811 -232 232 -583 342
-962 302z m230 -560 c178 -31 307 -156 327 -316 l7 -53 -428 0 -427 0 7 38
c13 72 72 177 127 227 105 95 236 130 387 104z"/>
<path d="M10245 5925 c-196 -31 -372 -136 -505 -301 l-55 -68 -3 177 -2 177
-345 0 -345 0 0 -1125 0 -1125 345 0 345 0 0 544 c0 334 4 574 11 622 26 192
105 292 272 346 49 17 100 22 242 27 l180 6 3 368 2 367 -32 -1 c-18 -1 -69
-7 -113 -14z"/>
<path d="M17000 5934 c-213 -32 -352 -97 -487 -227 l-63 -60 0 131 0 132 -345
0 -345 0 0 -1125 0 -1125 344 0 345 0 3 668 c4 657 4 668 26 733 37 111 97
181 198 230 117 57 291 57 408 0 101 -49 161 -119 198 -230 22 -65 23 -75 26
-733 l3 -668 345 0 344 0 0 643 c0 695 2 723 55 826 46 91 136 162 245 191 63
17 207 15 270 -4 135 -40 223 -132 268 -281 13 -42 16 -157 19 -712 l4 -663
345 0 345 0 -4 743 c-3 613 -7 755 -19 817 -60 295 -209 501 -447 621 -223
111 -540 127 -770 39 -148 -57 -314 -184 -404 -307 -17 -24 -33 -43 -36 -43
-3 0 -16 18 -28 39 -55 96 -191 215 -318 279 -135 67 -380 107 -525 86z"/>
<path d="M13406 4833 c250 -593 454 -1085 454 -1093 0 -8 -115 -269 -255 -580
l-254 -565 371 -3 c205 -1 375 1 378 5 4 5 321 748 705 1653 384 905 700 1648
702 1653 2 4 -166 7 -374 7 l-378 0 -255 -697 c-139 -383 -256 -692 -257 -687
-2 5 -118 317 -257 694 l-254 685 -390 3 -390 2 454 -1077z"/>
<path d="M20030 4785 l0 -1125 345 0 345 0 0 1125 0 1125 -345 0 -345 0 0
-1125z"/>
<path d="M3935 5431 c-152 -19 -268 -97 -333 -226 -42 -83 -45 -119 -47 -430
-1 -189 -6 -324 -14 -365 -34 -176 -182 -351 -344 -409 -101 -35 -208 -41
-702 -40 -402 0 -477 -2 -522 -15 -106 -33 -200 -123 -245 -236 -22 -53 -23
-69 -26 -447 -2 -240 1 -413 7 -447 29 -158 156 -289 316 -327 64 -15 1167
-13 1237 2 98 21 214 120 262 224 40 84 46 141 46 420 0 316 9 394 56 493 46
96 163 216 255 261 128 62 117 61 859 61 444 0 697 4 736 11 153 28 266 132
315 290 17 55 19 97 19 438 0 410 -4 445 -57 544 -37 67 -130 150 -200 179
l-58 23 -750 1 c-412 1 -777 -2 -810 -5z"/>
</g>
</svg>
