<?xml version="1.0" encoding="UTF-8"?>
<svg xmlns="http://www.w3.org/2000/svg"
     width="708" height="201" viewBox="0 0 708 201"
     preserveAspectRatio="xMidYMid meet" role="img" aria-label="Freymi logo">
  <path fill="#0B0B0D" fill-rule="evenodd" d="
    M 29.00 169.17 L 22.00 169.94 L 18.00 169.77 L 15.00 169.32 L 14.00 169.00 L 12.00 168.28 L 10.00 167.15 L 8.58 166.00 L 7.68 165.00 L 5.62 162.00 L 5.00 160.70 L 4.00 157.85 L 3.22 155.00 L 2.53 151.00 L 1.91 146.00 L 1.65 141.00 L 1.93 102.00 L 1.78 66.00 L 1.96 61.00 L 2.51 54.00 L 3.13 50.00 L 3.81 47.00 L 4.72 44.00 L 5.59 42.00 L 7.82 38.00 L 8.62 37.00 L 12.00 33.69 L 15.00 31.58 L 20.00 28.93 L 24.00 27.66 L 26.00 27.31 L 31.00 26.89 L 38.00 26.63 L 52.00 26.63 L 80.00 27.14 L 85.00 26.83 L 90.00 26.31 L 92.00 25.75 L 96.00 25.06 L 99.00 24.34 L 105.00 22.34 L 115.00 18.06 L 118.00 16.62 L 119.00 16.33 L 124.00 13.83 L 140.00 6.51 L 147.00 3.57 L 153.00 1.66 L 158.00 0.74 L 161.00 0.67 L 164.00 0.91 L 167.00 1.93 L 168.69 3.00 L 169.93 4.00 L 171.00 5.07 L 172.38 7.00 L 173.42 9.00 L 174.46 12.00 L 174.94 17.00 L 175.02 28.00 L 174.86 39.00 L 175.02 56.00 L 174.86 62.00 L 175.10 72.00 L 174.88 76.00 L 174.86 88.00 L 175.02 91.00 L 174.94 99.00 L 175.10 101.00 L 174.61 103.00 L 174.00 103.97 L 173.00 104.27 L 171.00 104.30 L 169.82 102.00 L 169.63 100.00 L 169.62 93.00 L 169.40 89.00 L 168.33 86.00 L 167.77 85.00 L 166.90 84.00 L 166.00 83.34 L 165.00 82.76 L 162.00 81.64 L 157.00 81.04 L 154.00 80.97 L 151.00 81.16 L 146.00 81.77 L 143.00 82.51 L 140.00 83.66 L 134.00 86.60 L 131.00 88.51 L 128.00 90.88 L 126.00 92.74 L 122.52 97.00 L 120.71 100.00 L 120.32 101.00 L 118.68 104.00 L 116.32 110.00 L 115.77 111.00 L 114.22 115.00 L 113.69 116.00 L 113.45 117.00 L 110.28 125.00 L 108.29 129.00 L 106.04 133.00 L 103.20 137.00 L 99.74 141.00 L 96.65 144.00 L 94.00 146.14 L 91.00 148.29 L 86.00 151.21 L 82.00 153.14 L 77.00 155.27 L 69.00 157.87 L 65.00 159.35 L 60.00 160.76 L 59.00 161.22 L 49.00 164.26 L 38.00 167.22 L 31.00 168.63 L 29.00 169.17 Z
    M 57.94 151.00 L 67.00 149.30 L 71.00 148.22 L 79.00 145.37 L 83.93 143.00 L 87.00 141.23 L 91.00 138.29 L 95.00 134.60 L 96.44 133.00 L 99.41 129.00 L 101.36 126.00 L 103.06 123.00 L 105.00 118.86 L 107.82 111.00 L 108.34 110.00 L 109.74 106.00 L 111.78 101.00 L 113.83 97.00 L 117.77 91.00 L 120.00 88.38 L 123.26 85.00 L 127.00 81.91 L 130.00 79.91 L 132.00 78.79 L 139.00 75.75 L 142.00 74.80 L 147.00 73.84 L 151.00 73.50 L 157.00 73.51 L 161.00 73.80 L 164.00 74.31 L 165.00 74.53 L 167.00 75.43 L 168.00 75.42 L 168.53 75.00 L 169.22 73.00 L 169.38 69.00 L 169.18 67.00 L 168.51 64.00 L 167.98 62.00 L 166.13 58.00 L 164.00 55.05 L 163.06 54.00 L 160.96 52.00 L 159.00 50.57 L 157.00 49.46 L 151.00 46.94 L 147.00 45.77 L 141.00 44.54 L 136.00 43.77 L 129.00 43.09 L 128.00 42.83 L 115.00 42.15 L 114.00 41.97 L 102.00 41.97 L 101.00 41.81 L 100.00 41.97 L 95.00 41.68 L 79.00 41.87 L 65.00 41.66 L 53.00 41.81 L 46.00 42.93 L 41.00 44.82 L 39.00 45.75 L 37.00 46.94 L 32.00 50.83 L 30.86 52.00 L 27.55 56.00 L 25.76 59.00 L 24.81 61.00 L 23.55 64.00 L 22.63 67.00 L 22.32 69.00 L 21.67 71.00 L 20.72 76.00 L 20.26 81.00 L 20.02 86.00 L 20.02 112.00 L 20.25 117.00 L 20.78 122.00 L 21.43 125.00 L 21.83 128.00 L 22.40 130.00 L 22.70 132.00 L 24.82 137.00 L 26.59 140.00 L 28.81 143.00 L 30.74 145.00 L 32.02 146.00 L 34.00 147.33 L 37.00 149.06 L 40.00 150.31 L 43.00 151.17 L 45.00 151.56 L 48.00 151.70 L 52.00 151.58 L 57.00 151.22 L 57.94 151.00 Z
    M 497.00 198.15 L 493.00 198.60 L 488.00 198.66 L 483.00 198.37 L 476.00 197.15 L 475.00 196.70 L 473.00 196.14 L 469.00 194.26 L 467.00 193.20 L 464.00 191.31 L 461.00 189.13 L 456.00 184.86 L 451.77 180.00 L 449.00 175.82 L 445.72 170.00 L 444.56 167.00 L 444.37 166.00 L 443.84 165.00 L 443.53 164.00 L 443.06 162.00 L 443.06 161.00 L 444.00 160.24 L 445.00 159.91 L 446.00 159.80 L 449.00 160.14 L 455.00 159.94 L 456.00 160.27 L 456.57 161.00 L 457.89 165.00 L 459.78 169.00 L 462.67 173.00 L 466.00 176.35 L 470.00 179.63 L 473.00 181.52 L 476.04 183.00 L 479.00 184.06 L 481.00 184.55 L 485.00 185.26 L 489.00 185.62 L 493.00 185.31 L 497.00 184.50 L 501.00 183.22 L 505.00 181.38 L 507.00 180.24 L 510.00 178.03 L 512.21 176.00 L 514.06 174.00 L 517.15 170.00 L 519.03 167.00 L 521.33 162.00 L 522.34 159.00 L 523.11 156.00 L 523.71 152.00 L 524.53 148.00 L 524.59 141.00 L 524.35 139.00 L 524.00 138.65 L 523.00 139.17 L 522.00 140.29 L 516.00 144.28 L 512.00 146.19 L 509.00 147.30 L 504.00 148.32 L 502.00 148.53 L 493.00 148.70 L 490.00 148.53 L 487.00 148.12 L 483.00 147.03 L 476.08 144.00 L 472.00 141.41 L 469.00 138.95 L 466.00 135.93 L 462.86 132.00 L 461.61 130.00 L 458.92 125.00 L 456.65 118.00 L 455.64 113.00 L 455.37 106.00 L 455.44 65.00 L 455.60 64.00 L 456.00 63.46 L 457.00 63.15 L 459.00 62.79 L 466.00 62.78 L 467.00 63.25 L 467.94 64.00 L 468.35 65.00 L 468.12 84.00 L 468.20 110.00 L 468.51 113.00 L 469.77 118.00 L 470.54 120.00 L 471.56 122.00 L 472.72 124.00 L 475.00 126.79 L 477.09 129.00 L 480.00 131.37 L 483.00 133.30 L 486.00 134.61 L 489.00 135.50 L 493.00 136.14 L 496.00 136.25 L 503.00 135.40 L 504.00 135.14 L 507.00 134.06 L 510.00 132.57 L 514.00 130.14 L 518.17 126.00 L 520.32 123.00 L 521.42 121.00 L 523.13 117.00 L 524.14 113.00 L 524.52 110.00 L 524.66 98.00 L 524.64 69.00 L 524.52 65.00 L 524.78 64.00 L 526.00 63.06 L 527.00 62.66 L 530.00 62.90 L 533.00 62.65 L 534.00 62.65 L 536.00 63.23 L 537.08 64.00 L 537.37 65.00 L 537.32 117.00 L 537.09 127.00 L 537.32 133.00 L 537.39 145.00 L 537.14 150.00 L 536.87 151.00 L 536.51 155.00 L 535.40 160.00 L 533.08 167.00 L 531.59 170.00 L 531.28 171.00 L 530.15 173.00 L 528.33 176.00 L 526.22 179.00 L 524.00 181.79 L 520.23 186.00 L 517.00 188.81 L 514.00 191.17 L 509.00 194.21 L 508.00 194.56 L 507.00 195.18 L 501.00 197.33 L 497.00 198.15 Z
    M 416.00 148.00 L 413.00 148.53 L 409.00 148.78 L 403.00 148.78 L 399.00 148.56 L 397.00 148.28 L 393.00 147.37 L 390.00 146.25 L 386.00 144.36 L 384.00 143.25 L 382.00 141.77 L 381.00 141.25 L 378.34 139.00 L 375.00 135.85 L 372.68 133.00 L 369.94 129.00 L 367.81 125.00 L 365.80 120.00 L 364.68 116.00 L 363.45 109.00 L 363.48 100.00 L 364.44 94.00 L 364.98 92.00 L 366.77 87.00 L 368.56 83.00 L 371.67 78.00 L 374.00 75.21 L 378.00 71.34 L 381.00 68.82 L 384.00 66.72 L 388.00 64.54 L 390.00 63.65 L 396.00 61.77 L 403.00 60.91 L 408.00 60.78 L 415.00 61.86 L 418.00 62.77 L 419.00 63.32 L 422.00 64.48 L 426.00 66.65 L 429.00 68.74 L 433.00 72.29 L 436.00 75.28 L 438.21 78.00 L 440.11 81.00 L 441.17 83.00 L 442.49 86.00 L 443.52 89.00 L 443.73 90.00 L 444.23 91.00 L 444.71 94.00 L 445.10 95.00 L 445.43 97.00 L 445.59 101.00 L 445.52 105.00 L 445.31 107.00 L 444.32 110.00 L 443.00 111.12 L 442.00 111.40 L 423.00 111.13 L 401.00 111.20 L 398.00 111.02 L 394.00 111.02 L 393.00 110.87 L 392.00 111.02 L 391.00 110.87 L 378.00 110.86 L 376.94 112.00 L 377.49 114.00 L 377.78 116.00 L 378.31 117.00 L 378.54 118.00 L 380.55 122.00 L 381.84 124.00 L 384.31 127.00 L 388.00 130.46 L 391.00 132.56 L 394.00 134.11 L 397.00 135.23 L 401.00 135.98 L 404.00 136.23 L 409.00 136.06 L 413.00 135.30 L 416.00 134.44 L 419.00 133.31 L 423.00 131.35 L 424.00 130.69 L 425.00 130.33 L 425.81 131.00 L 428.53 135.00 L 431.60 139.00 L 431.95 140.00 L 431.77 141.00 L 429.00 143.09 L 425.00 145.14 L 422.00 146.38 L 416.00 148.00 Z
    M 661.00 148.46 L 659.00 148.70 L 651.00 148.62 L 650.00 148.40 L 649.58 148.00 L 649.24 147.00 L 649.03 126.00 L 649.23 113.00 L 649.12 93.00 L 648.96 91.00 L 648.27 87.00 L 647.51 85.00 L 646.38 83.00 L 644.00 80.04 L 641.69 78.00 L 640.00 76.76 L 638.00 75.77 L 633.00 74.55 L 629.00 74.41 L 627.00 74.68 L 624.00 75.51 L 620.00 77.56 L 618.13 79.00 L 615.00 82.19 L 613.71 84.00 L 612.77 86.00 L 611.87 89.00 L 611.53 91.00 L 611.32 96.00 L 611.34 128.00 L 611.63 147.00 L 611.00 148.15 L 610.00 148.62 L 608.00 148.79 L 605.00 148.56 L 602.00 148.97 L 601.00 148.87 L 600.00 148.46 L 599.47 148.00 L 599.06 147.00 L 599.05 100.00 L 598.91 93.00 L 598.78 91.00 L 598.29 88.00 L 597.23 85.00 L 596.25 83.00 L 594.70 81.00 L 592.96 79.00 L 590.00 76.66 L 588.00 75.70 L 585.00 74.86 L 581.00 74.46 L 577.00 74.68 L 574.00 75.47 L 571.00 76.94 L 569.42 78.00 L 566.00 81.00 L 564.44 83.00 L 563.87 84.00 L 562.21 89.00 L 561.82 91.00 L 561.61 94.00 L 561.54 118.00 L 561.80 131.00 L 561.72 142.00 L 561.94 147.00 L 561.55 148.00 L 561.00 148.67 L 560.00 148.78 L 554.00 148.64 L 551.00 148.87 L 550.00 148.46 L 549.54 148.00 L 549.28 147.00 L 549.05 143.00 L 549.06 91.00 L 549.49 86.00 L 550.79 81.00 L 551.60 79.00 L 552.63 77.00 L 554.46 74.00 L 557.00 71.06 L 558.16 70.00 L 561.00 67.67 L 564.00 65.67 L 568.00 63.62 L 569.00 63.33 L 570.00 62.79 L 571.00 62.41 L 575.00 61.46 L 581.00 61.22 L 585.00 61.45 L 587.00 61.69 L 591.00 62.76 L 595.00 64.50 L 599.00 66.74 L 602.00 69.26 L 605.00 72.32 L 606.00 72.21 L 610.00 68.40 L 612.00 66.78 L 615.00 64.79 L 617.00 63.76 L 623.00 61.64 L 626.00 61.22 L 629.00 60.91 L 632.00 60.91 L 638.00 61.75 L 641.00 62.62 L 643.00 63.41 L 646.00 64.90 L 649.00 66.79 L 652.72 70.00 L 654.63 72.00 L 656.29 74.00 L 658.33 77.00 L 660.02 81.00 L 661.22 85.00 L 662.08 90.00 L 662.42 98.00 L 662.45 147.00 L 662.00 147.82 L 661.00 148.46 Z
    M 256.00 148.32 L 255.00 148.70 L 250.00 148.56 L 246.00 148.87 L 245.00 148.66 L 244.40 148.00 L 244.00 147.00 L 244.05 98.00 L 243.79 84.00 L 243.86 81.00 L 243.69 80.00 L 243.00 79.28 L 242.00 78.86 L 240.00 79.39 L 238.00 79.70 L 235.00 80.51 L 232.00 81.78 L 230.00 82.94 L 226.00 85.51 L 223.00 87.87 L 222.00 89.13 L 221.00 89.51 L 219.98 89.00 L 219.59 88.00 L 219.48 87.00 L 219.47 79.00 L 219.66 77.00 L 221.00 75.35 L 225.00 71.98 L 228.00 69.89 L 230.00 68.83 L 235.00 66.67 L 239.00 65.63 L 242.00 65.29 L 244.00 64.37 L 244.29 64.00 L 244.33 55.00 L 244.68 51.00 L 245.76 46.00 L 246.80 43.00 L 248.65 39.00 L 249.83 37.00 L 250.61 36.00 L 253.12 33.00 L 259.00 27.66 L 262.00 25.72 L 266.00 23.77 L 270.00 22.48 L 273.00 21.79 L 277.00 21.31 L 282.00 21.03 L 289.00 21.11 L 292.00 21.34 L 293.00 21.90 L 293.31 23.00 L 293.20 32.00 L 293.29 33.00 L 293.20 34.00 L 293.00 34.28 L 292.00 34.95 L 290.00 35.27 L 276.00 35.44 L 274.00 35.77 L 271.00 36.69 L 269.00 37.63 L 267.00 38.71 L 265.36 40.00 L 262.00 43.34 L 260.76 45.00 L 259.64 47.00 L 258.68 49.00 L 258.10 51.00 L 257.65 52.00 L 256.78 59.00 L 257.16 63.00 L 258.00 64.04 L 259.00 64.34 L 262.00 63.91 L 282.00 64.03 L 289.00 64.76 L 289.94 66.00 L 290.21 67.00 L 290.33 77.00 L 289.00 78.25 L 288.00 78.41 L 285.00 78.53 L 259.00 78.41 L 258.00 78.60 L 257.33 79.00 L 257.00 79.62 L 256.76 81.00 L 256.66 146.00 L 256.61 147.00 L 256.26 148.00 L 256.00 148.32 Z
    M 307.00 148.46 L 306.00 148.70 L 304.00 148.56 L 297.00 148.62 L 296.00 148.15 L 295.52 147.00 L 295.63 99.00 L 296.75 92.00 L 297.67 89.00 L 299.76 84.00 L 300.83 82.00 L 302.79 79.00 L 305.93 75.00 L 309.12 72.00 L 313.00 68.82 L 316.00 66.89 L 320.00 64.93 L 323.00 63.66 L 326.00 62.67 L 332.00 61.67 L 335.00 61.53 L 351.00 61.67 L 361.00 61.53 L 363.32 62.00 L 364.00 62.53 L 364.31 63.00 L 364.41 65.00 L 364.25 67.00 L 360.23 73.00 L 358.77 74.00 L 358.00 74.36 L 357.00 74.48 L 347.00 74.39 L 335.00 74.62 L 329.00 75.62 L 326.00 76.62 L 324.00 77.49 L 322.00 78.60 L 319.00 80.76 L 316.00 83.47 L 314.69 85.00 L 313.00 87.36 L 310.94 91.00 L 310.58 92.00 L 308.68 98.00 L 308.38 100.00 L 308.00 111.00 L 308.13 119.00 L 308.00 146.00 L 307.87 147.00 L 307.46 148.00 L 307.00 148.46 Z
    M 704.00 148.69 L 703.00 148.87 L 700.00 148.76 L 697.00 148.27 L 693.10 147.00 L 691.00 146.06 L 688.00 144.30 L 684.00 141.26 L 682.00 139.40 L 680.80 138.00 L 678.62 135.00 L 676.51 131.00 L 675.64 129.00 L 674.72 126.00 L 673.82 121.00 L 673.61 118.00 L 673.55 65.00 L 674.00 63.92 L 675.00 63.17 L 676.00 62.75 L 677.00 62.64 L 679.00 62.92 L 681.00 62.72 L 684.00 62.78 L 685.00 63.20 L 686.09 64.00 L 686.35 65.00 L 686.06 110.00 L 686.12 116.00 L 686.65 120.00 L 687.81 124.00 L 689.00 126.92 L 690.44 129.00 L 692.31 131.00 L 694.00 132.43 L 697.00 134.26 L 700.00 135.32 L 703.00 135.81 L 704.00 136.19 L 704.97 137.00 L 705.34 138.00 L 705.41 139.00 L 705.42 147.00 L 704.85 148.00 L 704.00 148.69 Z
    M 431.73 98.00 L 432.00 97.85 L 432.42 97.00 L 432.35 96.00 L 431.28 92.00 L 430.37 90.00 L 427.25 85.00 L 426.00 83.56 L 423.35 81.00 L 419.00 77.76 L 414.00 75.53 L 410.00 74.62 L 406.00 74.32 L 401.00 74.51 L 399.00 74.87 L 396.00 75.69 L 391.00 77.78 L 387.00 80.50 L 385.33 82.00 L 383.48 84.00 L 381.87 86.00 L 380.57 88.00 L 378.58 92.00 L 377.86 94.00 L 377.46 96.00 L 377.09 97.00 L 377.30 98.00 L 378.00 98.52 L 379.00 98.55 L 422.00 98.46 L 429.00 98.34 L 431.00 98.22 L 431.73 98.00 Z
    M 168.00 148.15 L 167.00 148.48 L 163.00 148.79 L 161.00 148.70 L 160.00 148.53 L 159.00 148.14 L 157.00 147.14 L 154.42 145.00 L 153.61 144.00 L 152.60 142.00 L 151.77 139.00 L 151.71 137.00 L 151.80 135.00 L 152.73 132.00 L 153.84 130.00 L 156.00 127.71 L 157.00 126.88 L 160.00 125.34 L 162.00 124.77 L 164.00 124.45 L 167.00 125.12 L 168.00 125.61 L 170.93 128.00 L 172.00 129.16 L 174.21 132.00 L 174.62 133.00 L 175.36 136.00 L 175.40 138.00 L 175.26 139.00 L 174.33 142.00 L 173.26 144.00 L 172.43 145.00 L 171.00 146.34 L 168.00 148.15 Z
    M 682.00 57.08 L 680.00 57.36 L 679.00 57.22 L 678.00 56.76 L 677.00 56.51 L 676.00 55.97 L 675.00 55.22 L 673.84 54.00 L 672.71 52.00 L 672.11 50.00 L 671.98 48.00 L 672.19 47.00 L 672.83 45.00 L 673.44 44.00 L 676.00 41.37 L 677.00 40.71 L 680.00 39.60 L 683.00 40.22 L 684.00 40.65 L 685.69 42.00 L 687.00 43.30 L 688.18 45.00 L 688.54 46.00 L 688.89 48.00 L 688.71 50.00 L 688.17 52.00 L 687.00 53.92 L 685.93 55.00 L 684.00 56.42 L 682.00 57.08 Z
  "/>
</svg>
