<?xml version="1.0" encoding="UTF-8"?>
<svg xmlns="http://www.w3.org/2000/svg" width="991" height="272" viewBox="0 0 991 272" role="img" aria-labelledby="title">
  <title>Freymi logo test</title>
  <path fill="#ffffff" fill-rule="evenodd" clip-rule="evenodd" d="
      M 63 150.18 L 24 150.41 L 17 148.13 L 11 142.99 L 7.59 136 L 7.5 97 L 8.81 91 L 11.56 86 L 16 81.88 L 27 78.59 L 59 78.18 L 68 74.2 L 72 71 L 76.2 66 L 79.41 58 L 79.82 23 L 83.56 15 L 87.72 11 L 92 8.83 L 98 7.51 L 177 7.51 L 186 10.56 L 192.2 18 L 193.49 22 L 193.49 64 L 190 71.99 L 185 76.2 L 179 78.41 L 105 78.51 L 99 79.83 L 91 83.8 L 85.56 89 L 82.87 93 L 79.59 103 L 79.11 137 L 76.44 142 L 72 146.44 L 67 149.17 Z
      M 84 263.18 L 24 263.49 L 18 262.17 L 15 260.44 L 10.8 256 L 7.51 248 L 7.51 209 L 11 200.72 L 15 196.8 L 23 193.59 L 74 193.41 L 81 191.26 L 89 186.18 L 95 178.19 L 97.4 172 L 97.51 143 L 98.89 136 L 103 129.77 L 110 124.87 L 115 123.51 L 179 123.51 L 187.28 127 L 192.2 133 L 193.49 137 L 193.49 180 L 192.72 183 L 190 187.29 L 187 190.2 L 180 193.41 L 123 193.51 L 110.72 198 L 103.3 205 L 98.83 215 L 98.49 247 L 97.11 253 L 92.29 259 Z
      M 913 216.18 L 905.88 216 L 904.6 214 L 903.59 208 L 903.49 139 L 902.19 134 L 897 125.01 L 893 121.5 L 886 117.83 L 878 116.5 L 872 116.59 L 867 117.83 L 859 122.5 L 854.3 127 L 848.82 138 L 847.51 147 L 847.49 213 L 846 215.96 L 824 216.06 L 821.93 215 L 821.49 143 L 820.17 136 L 815 125.71 L 808.28 120 L 799 116.82 L 793 116.5 L 785 117.83 L 778.72 121 L 772.56 126 L 766.89 135 L 764.53 147 L 765.49 152 L 764.5 176 L 765.49 183 L 765.5 195 L 764 214.64 L 762 215.48 L 740.73 216 L 739.57 215 L 738.5 209 L 738.51 135 L 739.49 130 L 740 95.88 L 743 94.51 L 763 95.44 L 764.37 97 L 765.41 101 L 764.62 110 L 766 111.5 L 774 101.56 L 784 95.27 L 797 91.59 L 809 91.59 L 820 94.81 L 826.28 98 L 834.44 105 L 840.33 114 L 842 115.18 L 847.56 108 L 854.71 101 L 864 95.74 L 872 92.82 L 880 91.51 L 889 91.59 L 899 93.83 L 910 98.8 L 915 103.03 L 923.12 113 L 928.11 125 L 929.49 134 L 929.38 214 L 928 215.67 Z
      M 537 219.18 L 530 219.49 L 520 218.41 L 511 216.18 L 499 211.26 L 490.71 206 L 481 197 L 472.87 185 L 469.83 178 L 466.59 165 L 466.59 146 L 469.83 133 L 472.87 126 L 480.56 114 L 487 107.56 L 498 99.74 L 510 94.82 L 525 91.59 L 538 91.59 L 550 93.82 L 563 98.74 L 572.29 105 L 579.44 111 L 590.13 127 L 595.41 145 L 595.48 161 L 594 163.69 L 588 164.5 L 497 164.5 L 494 165.37 L 493.82 168 L 495.81 174 L 502 183.48 L 510 190.2 L 518 194.17 L 523 195.41 L 528 196.41 L 536 196.41 L 549 193.19 L 557 188.44 L 566 178.66 L 582 182.82 L 588.96 186 L 587.2 191 L 582.44 198 L 576 204.44 L 568 210.2 L 554 216.18 Z
      M 634 256.18 L 620 256.41 L 612 255.18 L 608.66 253 L 607.92 241 L 608.88 231 L 612 230.59 L 627 232.49 L 637 230.19 L 644.44 224 L 649.05 215 L 629.11 168 L 601.87 108 L 597.55 96 L 620 94.92 L 624 95.28 L 626 96.82 L 655.87 169 L 663 183.93 L 665.07 183 L 700 96.18 L 703 94.92 L 726.61 96 L 727.14 98 L 725.19 103 L 670.13 230 L 662 242 L 654.28 249 L 646 253.19 Z
      M 319 216.18 L 314 216.17 L 312.16 215 L 311.52 213 L 311.39 120 L 310 118.22 L 307 117.57 L 291 118.17 L 287.3 117 L 286.52 115 L 286.66 97 L 289 95.52 L 303 95.49 L 310.81 94 L 312.59 73 L 314.83 66 L 320.55 57 L 328 50.8 L 344 45.59 L 364 45.51 L 372 46.6 L 374.4 49 L 374 68.64 L 369 69.5 L 363 68.51 L 352 68.59 L 345 70.8 L 341 74.04 L 338.83 78 L 337.59 83 L 337.52 92 L 338.16 94 L 341 95.41 L 361 95.49 L 367 94.5 L 373 95.33 L 374.48 98 L 374.1 116 L 372 117.72 L 367 118.41 L 340 118.52 L 338 119.36 L 337.38 214 L 336 215.67 Z
      M 407 216.18 L 392 216.13 L 390.47 215 L 389.57 212 L 389.5 144 L 390.5 136 L 389.6 115 L 390.5 108 L 389.53 101 L 390.57 97 L 393 95.52 L 414.64 96 L 415.48 98 L 415.56 111 L 417 112.81 L 427 101.56 L 439 94.83 L 450 92.51 L 461 93.66 L 462.48 96 L 462 118.64 L 459 119.5 L 445 118.59 L 436 121.27 L 427 126.5 L 421.56 132 L 417.83 139 L 415.51 148 L 415.38 214 L 414 215.67 Z
      M 968 216.18 L 954 216.4 L 951.6 214 L 951.5 99 L 951.93 96 L 953 95.04 L 967 95.49 L 973 94.57 L 976 95.22 L 977.39 97 L 977.48 213 L 976 215.67 Z
      M 567.61 144 L 568.23 143 L 567.11 137 L 564.69 132 L 558.97 125 L 554 120.8 L 546 116.83 L 535 114.51 L 526 114.59 L 520 115.82 L 509 120.8 L 503.77 125 L 498.8 131 L 495.89 136 L 494.32 142 L 495 143.99 L 497 144.48 Z
      M 969 77.17 L 962 77.41 L 956 75.2 L 952 72.23 L 949.8 69 L 947.82 63 L 948.82 56 L 950.56 52 L 956 46.8 L 961 44.82 L 968 44.59 L 974.28 47 L 979.2 52 L 982.17 60 L 980.13 68 L 978 71.29 L 975 74.2 Z
  "/>
</svg>
