<svg viewBox="0 0 204 203" xmlns="http://www.w3.org/2000/svg" xmlns:xlink="http://www.w3.org/1999/xlink" xml:space="preserve" overflow="hidden"><style>path{fill:#000000}@media (prefers-color-scheme: dark){path{fill:#ffffff}}</style><g transform="translate(-376 -218)"><g><g><g><g><path d="M480.292 244.376 478.929 244.579 477.615 244.896 476.349 245.341 475.133 245.92 473.973 246.644 472.879 247.499 471.874 248.47 470.975 249.538 470.204 250.684 469.574 251.889 469.086 253.145 468.72 254.443 468.462 255.782 468.291 257.154 468.193 258.554 468.15 259.977 468.143 261.417 468.158 262.868 468.18 264.328 468.203 265.789 468.217 267.248 468.217 268.699 468.192 270.139 468.134 271.564 468.035 272.967 467.885 274.342 467.66 275.687 467.331 276.994 466.876 278.258 466.268 279.471 465.522 280.631 464.659 281.73 463.701 282.76 462.673 283.719 461.594 284.597 460.466 285.38 459.285 286.045 458.048 286.572 456.75 286.941 455.392 287.152 453.989 287.247 452.558 287.274 451.115 287.277 449.672 287.289 448.228 287.306 446.785 287.327 445.342 287.348 443.898 287.366 442.457 287.38 441.015 287.385 439.577 287.382 438.144 287.395 436.732 287.463 435.348 287.625 434.003 287.915 432.709 288.344 431.48 288.911 430.329 289.616 429.27 290.462 428.317 291.436 427.484 292.525 426.786 293.711 426.239 294.974 425.854 296.296 425.617 297.666 425.493 299.067 425.443 300.488 425.433 301.917 425.446 303.349 425.47 304.784 425.501 306.224 425.53 307.669 425.549 309.119 425.552 310.575 425.53 312.038 425.483 313.507 425.43 314.973 425.393 316.43 425.399 317.869 425.472 319.283 425.633 320.662 425.908 322.001 426.321 323.288 426.881 324.515 427.582 325.669 428.41 326.735 429.352 327.703 430.401 328.557 431.543 329.285 432.767 329.873 434.063 330.306 435.417 330.575 436.82 330.68 438.256 330.673 439.71 330.62 441.17 330.582 442.623 330.591 444.071 330.627 445.512 330.661 446.953 330.665 448.389 330.64 449.831 330.606 451.281 330.591 452.744 330.614 454.211 330.661 455.669 330.693 457.103 330.67 458.496 330.557 459.844 330.33 461.141 329.966 462.381 329.446 463.559 328.752 464.657 327.893 465.656 326.902 466.536 325.805 467.273 324.631 467.852 323.407 468.279 322.141 468.572 320.828 468.752 319.472 468.839 318.065 468.857 316.622 468.836 315.159 468.807 313.692 468.796 312.237 468.804 310.794 468.817 309.356 468.821 307.915 468.817 306.467 468.821 305.021 468.87 303.594 468.994 302.195 469.214 300.839 469.543 299.526 469.984 298.258 470.542 297.037 471.22 295.866 472.011 294.748 472.898 293.687 473.867 292.691 474.899 291.763 475.983 290.911 477.114 290.148 478.296 289.486 479.529 288.94 480.813 288.526 482.148 288.245 483.522 288.067 484.923 287.96 486.341 287.894 487.765 287.843 489.194 287.804 490.627 287.775 492.066 287.754 493.508 287.743 494.953 287.736 496.399 287.738 497.849 287.743 499.3 287.751 500.753 287.762 502.206 287.775 503.659 287.786 505.112 287.798 506.564 287.807 508.013 287.812 509.463 287.814 510.91 287.812 512.354 287.807 513.799 287.801 515.244 287.791 516.688 287.783 518.131 287.773 519.574 287.767 521.019 287.761 522.466 287.757 523.912 287.757 525.36 287.762 526.81 287.77 528.263 287.786 529.718 287.807 531.176 287.831 532.622 287.831 534.045 287.769 535.43 287.611 536.765 287.322 538.041 286.891 539.246 286.306 540.372 285.555 541.411 284.631 542.348 283.563 543.176 282.421 543.872 281.253 544.407 280.038 544.749 278.746 544.926 277.382 544.995 275.968 545.014 274.526 545.035 273.083 545.071 271.639 545.111 270.201 545.15 268.762 545.179 267.327 545.193 265.895 545.185 264.463 545.146 263.036 545.092 261.607 545.076 260.178 545.117 258.751 545.145 257.335 545.1 255.942 544.955 254.577 544.687 253.243 544.275 251.945 543.706 250.692 542.996 249.503 542.157 248.4 541.205 247.401 540.153 246.526 539.016 245.79 537.799 245.194 536.517 244.745 535.177 244.445 533.79 244.292 532.368 244.247 530.924 244.263 529.471 244.295 528.02 244.311 526.572 244.313 525.124 244.306 523.677 244.297 522.229 244.29 520.782 244.285 519.334 244.284 517.888 244.282 516.441 244.282 514.993 244.284 513.547 244.285 512.1 244.287 510.652 244.29 509.205 244.293 507.757 244.295 506.311 244.297 504.862 244.297 503.414 244.297 501.966 244.295 500.518 244.292 499.07 244.287 497.622 244.284 496.174 244.282 494.727 244.281 493.28 244.282 491.836 244.289 490.392 244.298 488.947 244.308 487.499 244.31 486.048 244.298 484.588 244.273 483.134 244.255 481.699 244.277ZM493.504 314.911 492.082 314.947 490.677 315.031 489.3 315.206 487.963 315.514 486.679 315.987 485.46 316.619 484.321 317.389 483.274 318.281 482.335 319.277 481.513 320.364 480.821 321.53 480.263 322.766 479.849 324.063 479.587 325.411 479.453 326.801 479.409 328.222 479.416 329.662 479.437 331.112 479.458 332.565 479.476 334.021 479.487 335.475 479.488 336.927 479.476 338.373 479.443 339.809 479.392 341.234 479.308 342.642 479.166 344.024 478.939 345.374 478.599 346.68 478.13 347.939 477.539 349.147 476.835 350.31 476.032 351.426 475.136 352.5 474.16 353.517 473.108 354.458 471.992 355.298 470.817 356.018 469.593 356.595 468.325 357.033 467.017 357.354 465.674 357.579 464.3 357.734 462.897 357.832 461.473 357.887 460.031 357.906 458.578 357.9 457.117 357.879 455.656 357.852 454.198 357.827 452.75 357.816 451.308 357.819 449.87 357.832 448.433 357.853 446.994 357.879 445.55 357.898 444.1 357.903 442.642 357.884 441.179 357.839 439.72 357.795 438.273 357.778 436.848 357.818 435.454 357.94 434.103 358.177 432.803 358.554 431.563 359.098 430.396 359.815 429.322 360.682 428.359 361.673 427.526 362.765 426.84 363.933 426.303 365.163 425.905 366.45 425.638 367.789 425.488 369.174 425.437 370.598 425.448 372.048 425.483 373.509 425.507 374.965 425.506 376.412 425.493 377.854 425.48 379.295 425.482 380.74 425.493 382.19 425.501 383.643 425.496 385.094 425.469 386.542 425.451 387.981 425.486 389.402 425.62 390.795 425.884 392.153 426.289 393.461 426.835 394.708 427.521 395.877 428.349 396.958 429.307 397.936 430.375 398.801 431.535 399.539 432.767 400.138 434.055 400.589 435.383 400.906 436.751 401.109 438.148 401.219 439.57 401.261 441.01 401.253 442.462 401.217 443.916 401.177 445.371 401.151 446.824 401.14 448.275 401.14 449.723 401.15 451.171 401.164 452.616 401.18 454.058 401.198 455.5 401.209 456.938 401.217 458.375 401.219 459.81 401.217 461.242 401.212 462.671 401.204 464.097 401.196 465.519 401.187 466.938 401.175 468.345 401.129 469.725 401 471.07 400.739 472.364 400.301 473.593 399.689 474.746 398.925 475.808 398.034 476.761 397.04 477.599 395.964 478.311 394.814 478.892 393.598 479.339 392.319 479.643 390.984 479.822 389.605 479.902 388.195 479.915 386.768 479.894 385.337 479.857 383.909 479.823 382.483 479.806 381.056 479.817 379.629 479.849 378.2 479.885 376.763 479.928 375.329 479.989 373.91 480.099 372.514 480.287 371.151 480.589 369.83 481.027 368.557 481.597 367.335 482.286 366.164 483.084 365.041 483.975 363.968 484.948 362.952 485.991 362.003 487.096 361.138 488.251 360.373 489.447 359.722 490.677 359.193 491.947 358.783 493.256 358.483 494.614 358.288 496.019 358.188 497.457 358.156 498.914 358.163 500.371 358.179 501.82 358.183 503.261 358.18 504.7 358.172 506.143 358.169 507.59 358.169 509.041 358.172 510.494 358.179 511.949 358.185 513.402 358.19 514.851 358.192 516.298 358.19 517.74 358.183 519.178 358.174 520.615 358.163 522.05 358.153 523.49 358.148 524.935 358.153 526.387 358.166 527.848 358.193 529.315 358.227 530.781 358.246 532.232 358.23 533.658 358.151 535.048 357.989 536.39 357.721 537.675 357.322 538.892 356.769 540.027 356.059 541.074 355.205 542.023 354.224 542.862 353.133 543.582 351.95 544.177 350.691 544.631 349.374 544.94 348.014 545.09 346.632 545.106 345.236 545.089 343.821 545.103 342.389 545.122 340.951 545.124 339.514 545.111 338.08 545.089 336.645 545.061 335.211 545.035 333.778 545.021 332.344 545.026 330.912 545.058 329.483 545.087 328.062 545.068 326.659 544.952 325.282 544.697 323.942 544.296 322.645 543.753 321.401 543.073 320.219 542.265 319.108 541.334 318.08 540.293 317.162 539.159 316.379 537.943 315.757 536.661 315.32 535.322 315.058 533.94 314.926 532.526 314.874 531.093 314.855 529.647 314.845 528.196 314.84 526.743 314.839 525.291 314.84 523.843 314.842 522.396 314.844 520.953 314.847 519.511 314.85 518.068 314.852 516.625 314.853 515.18 314.853 513.732 314.852 512.284 314.849 510.834 314.845 509.382 314.842 507.931 314.839 506.48 314.836 505.03 314.832 503.58 314.832 502.132 314.834 500.686 314.839 499.242 314.845 497.802 314.857 496.365 314.869 494.932 314.889Z" fill="#000000" fill-rule="nonzero" fill-opacity="1"/></g></g></g></g></g></svg>